<svg xmlns="http://www.w3.org/2000/svg" width="887" height="1024" viewBox="0 0 887 1024" version="1.1"><path d="M 682.725 244.388 C 654.497 258.893, 652.800 259.924, 650.081 264.211 C 644.086 273.665, 639.328 269.490, 691.925 300.934 C 738.855 328.990, 738.855 328.990, 740.368 334.245 C 741.200 337.135, 743.796 346.587, 746.138 355.250 C 748.842 365.256, 750.866 371, 751.686 371 C 752.396 371, 756.470 370.051, 760.739 368.891 C 766.561 367.308, 774.497 363.408, 792.500 353.282 C 805.700 345.857, 816.999 339.269, 817.609 338.641 C 818.219 338.014, 820.892 331.236, 823.550 323.579 C 828.382 309.659, 828.382 309.659, 826.182 301.079 C 821.738 283.751, 823.617 286.228, 807.737 276.765 C 742.087 237.644, 745.657 239.577, 728.925 234.099 C 720.358 231.295, 713.158 229.020, 712.925 229.044 C 712.691 229.068, 699.101 235.973, 682.725 244.388 M 795.302 383.006 C 772.104 393.764, 772.104 393.764, 762.102 403.054 C 752.100 412.344, 752.100 412.344, 747.618 423.922 C 743.137 435.500, 743.137 435.500, 744.529 452 C 745.295 461.075, 745.939 470.133, 745.961 472.129 C 745.995 475.268, 746.738 476.387, 751.470 480.430 C 756.940 485.103, 756.940 485.103, 788.105 476.583 C 805.246 471.896, 819.374 467.936, 819.501 467.781 C 819.627 467.627, 821.640 463.227, 823.975 458.005 C 828.219 448.511, 828.219 448.511, 829.042 415.505 C 829.866 382.500, 829.866 382.500, 825.683 378.173 C 823.382 375.793, 820.825 373.487, 820 373.047 C 818.999 372.514, 810.776 375.830, 795.302 383.006 M 785.555 504.618 C 772.935 507.609, 762.533 510.156, 762.438 510.278 C 762.344 510.400, 758.804 516.551, 754.573 523.946 C 746.880 537.392, 746.880 537.392, 749.100 575.900 C 751.321 614.409, 751.321 614.409, 783.791 651.955 C 801.650 672.605, 816.806 690.087, 817.471 690.805 C 818.438 691.848, 819.613 691.874, 823.340 690.936 C 828 689.763, 828 689.763, 827.998 621.631 C 827.996 584.159, 827.702 543.799, 827.344 531.942 C 826.693 510.385, 826.693 510.385, 819.097 505.038 C 814.918 502.097, 810.825 499.576, 810 499.435 C 809.175 499.295, 798.175 501.627, 785.555 504.618" stroke="none" fill="#eacb8b" fill-rule="evenodd"/><path d="M 453.310 135.500 C 453.315 138.800, 453.502 140.029, 453.725 138.232 C 453.947 136.435, 453.943 133.735, 453.715 132.232 C 453.486 130.729, 453.304 132.200, 453.310 135.500 M 158 230.418 C 77.500 276.851, 77.500 276.851, 67.114 292.982 C 56.727 309.112, 56.727 309.112, 57.934 405.306 C 58.707 466.959, 58.880 536.365, 58.418 598.597 C 57.696 695.695, 57.696 695.695, 63.478 703.597 C 66.658 707.944, 69.571 711.847, 69.952 712.272 C 70.333 712.696, 73.721 710.715, 77.481 707.868 C 81.285 704.988, 93.453 698.160, 104.909 692.478 C 125.500 682.263, 125.500 682.263, 133.229 666.382 C 140.958 650.500, 140.958 650.500, 140.010 586 C 139.489 550.525, 139.048 483.050, 139.031 436.055 C 138.991 325.685, 133.609 337.317, 202.728 298.381 C 252.222 270.500, 252.222 270.500, 263.690 258.298 C 275.157 246.096, 275.157 246.096, 267.079 216.482 C 262.635 200.194, 259 186.711, 259 186.519 C 259 186.327, 255.512 185.880, 251.250 185.526 C 246.988 185.171, 242.375 184.679, 241 184.433 C 239.080 184.089, 219.829 194.755, 158 230.418 M 176.482 487 C 176.482 544.475, 176.602 567.987, 176.750 539.250 C 176.897 510.512, 176.897 463.487, 176.750 434.750 C 176.602 406.012, 176.482 429.525, 176.482 487 M 283.487 398.250 C 269.500 412.500, 269.500 412.500, 283.750 398.513 C 296.988 385.520, 298.453 384, 297.737 384 C 297.592 384, 291.179 390.413, 283.487 398.250 M 829.336 416 C 829.336 420.125, 829.513 421.813, 829.728 419.750 C 829.944 417.688, 829.944 414.313, 829.728 412.250 C 829.513 410.188, 829.336 411.875, 829.336 416 M 828.444 647 C 828.444 663.775, 828.581 670.638, 828.748 662.250 C 828.915 653.862, 828.915 640.138, 828.748 631.750 C 828.581 623.362, 828.444 630.225, 828.444 647" stroke="none" fill="#be616b" fill-rule="evenodd"/><path d="M 460.404 80.720 C 455.308 82.207, 455.308 82.207, 454.654 100.264 C 454.294 110.195, 454 126.094, 454 135.595 C 454 152.869, 454 152.869, 461.711 164.817 C 469.421 176.764, 469.421 176.764, 520.461 207.267 C 571.500 237.770, 571.500 237.770, 590.588 243.385 C 601.087 246.473, 611.076 249, 612.786 249 C 614.802 249, 627.467 243.227, 648.815 232.577 C 681.735 216.155, 681.735 216.155, 679.203 206.813 C 676.672 197.471, 676.672 197.471, 665.086 190.829 C 502.375 97.554, 469.627 79.018, 467.732 79.116 C 466.504 79.180, 463.207 79.902, 460.404 80.720 M 387.957 97.321 C 371.755 106.817, 345.225 122.362, 329 131.866 C 299.500 149.147, 299.500 149.147, 293.248 158.324 C 289.809 163.371, 286.982 167.950, 286.966 168.500 C 286.951 169.050, 290.214 181.726, 294.219 196.669 C 301.500 223.837, 301.500 223.837, 306.571 226.582 C 311.642 229.327, 311.642 229.327, 319.243 227.261 C 325.522 225.554, 334.293 220.838, 369.672 200.145 C 412.500 175.095, 412.500 175.095, 421.347 157.298 C 430.193 139.500, 430.193 139.500, 427.534 117 C 423.212 80.424, 423.901 83.845, 420.457 81.834 C 417.413 80.057, 417.413 80.057, 387.957 97.321 M 827.378 528 C 827.378 534.325, 827.541 536.913, 827.739 533.750 C 827.937 530.587, 827.937 525.413, 827.739 522.250 C 827.541 519.087, 827.378 521.675, 827.378 528 M 745.552 668.843 C 745.221 673.054, 744.624 677.498, 744.225 678.719 C 743.808 679.994, 735.527 686.909, 724.747 694.984 C 707.583 707.840, 702.411 711.005, 663.747 732.314 C 625.585 753.347, 620.078 756.707, 606.797 767.066 C 593.382 777.531, 591.494 779.408, 585.237 788.517 C 561.335 823.313, 501.885 910.176, 499.683 913.522 C 497.320 917.113, 497.148 917.951, 498.082 921.334 C 498.657 923.419, 499.524 924.984, 500.007 924.812 C 500.491 924.640, 569.049 884.675, 652.358 836 C 803.830 747.500, 803.830 747.500, 809.486 737.655 C 812.596 732.241, 814.931 727.291, 814.673 726.655 C 814.269 725.660, 767.726 673.529, 761.629 667.242 C 760.424 666, 756.450 664.129, 752.796 663.085 C 746.153 661.185, 746.153 661.185, 745.552 668.843 M 127.993 713.303 C 89.683 733.075, 92.393 731.298, 87.834 739.644 C 83.931 746.787, 83.931 746.787, 154.949 787.394 C 194.009 809.727, 226.568 828, 227.302 828 C 228.036 828, 231.029 827.290, 233.953 826.421 C 239.268 824.843, 239.268 824.843, 238.769 796.671 C 238.270 768.500, 238.270 768.500, 234.579 755 C 232.548 747.575, 230.575 741.228, 230.193 740.895 C 229.380 740.184, 156.022 698.975, 155.711 699.053 C 155.595 699.083, 143.122 705.495, 127.993 713.303 M 270.749 769.750 C 267.092 773.500, 267.092 773.500, 269.038 806 C 270.687 833.544, 271.351 839.768, 273.389 846.813 C 274.711 851.386, 276.035 855.368, 276.330 855.664 C 278.162 857.496, 429.560 944.997, 430.876 944.984 C 431.769 944.976, 436.310 943.922, 440.967 942.641 C 449.434 940.314, 449.434 940.314, 490.671 878.907 C 513.350 845.133, 531.928 817.197, 531.953 816.827 C 531.979 816.457, 528.733 817.163, 524.741 818.395 C 519.831 819.909, 509.232 825.433, 491.991 835.463 C 477.971 843.620, 464.657 851.354, 462.404 852.651 C 458.307 855.010, 458.307 855.010, 437.470 851.996 C 421.915 849.745, 415.729 848.442, 413.067 846.854 C 403.019 840.863, 274.859 766, 274.650 766 C 274.516 766, 272.760 767.688, 270.749 769.750" stroke="none" fill="#a3bd8d" fill-rule="evenodd"/><path d="M 308.439 282.256 C 190.377 350.491, 190.377 350.491, 183.797 361.995 C 177.217 373.500, 177.217 373.500, 176.760 510.315 C 176.304 647.130, 176.304 647.130, 183.250 659.318 C 190.195 671.507, 190.195 671.507, 308.071 739.753 C 425.947 808, 425.947 808, 440.245 808 C 454.543 808, 454.543 808, 571.521 740.411 C 635.860 703.238, 689 672.409, 689.611 671.904 C 690.222 671.399, 693.710 665.809, 697.361 659.482 C 704 647.979, 704 647.979, 704 511.119 C 704 374.260, 704 374.260, 697.104 362.393 C 690.208 350.525, 690.208 350.525, 572.354 282.276 C 454.500 214.027, 454.500 214.027, 440.500 214.025 C 426.500 214.022, 426.500 214.022, 308.439 282.256 M 300.500 382.555 C 297.033 384.337, 274.186 406.617, 269.894 412.400 C 267.818 415.198, 267 417.447, 267 420.359 C 267 424.364, 267.504 424.922, 305.898 463.458 C 346.222 503.932, 347.267 505.193, 345.474 511.228 C 345.103 512.477, 327.548 530.825, 306.463 552 C 281.076 577.496, 267.900 591.431, 267.454 593.257 C 265.859 599.781, 267.167 601.688, 286.454 620.954 C 304.604 639.084, 304.950 639.365, 307.471 638.016 C 308.881 637.261, 311.246 635.036, 312.727 633.072 C 314.208 631.107, 341.313 603.490, 372.960 571.699 C 410.031 534.461, 430.811 512.873, 431.375 511.017 C 431.857 509.432, 431.942 506.867, 431.565 505.317 C 430.693 501.735, 314.023 384.457, 309.282 382.398 C 305.223 380.634, 304.199 380.653, 300.500 382.555 M 443.763 597.565 C 438.911 600.198, 438 603.506, 438 618.500 C 438 628.700, 438.379 632.833, 439.517 635.033 C 442.729 641.244, 439.189 641, 526 641 C 613.733 641, 609.722 641.303, 612.579 634.466 C 614.542 629.767, 614.542 607.233, 612.579 602.534 C 609.720 595.693, 613.766 595.996, 525.800 596.040 C 457.608 596.074, 446.117 596.288, 443.763 597.565" stroke="none" fill="#7e9fbe" fill-rule="evenodd"/><path d="M 228.211 123.931 C 111.452 192.045, 12.339 249.857, 7.961 252.401 C 0 257.027, 0 257.027, 0 342.347 C 0 389.274, 0.299 504.647, 0.665 598.732 C 1.331 769.796, 1.331 769.796, 17.415 779.020 C 26.262 784.093, 77.825 813.676, 132 844.760 C 186.175 875.843, 264.250 920.637, 305.500 944.302 C 346.750 967.966, 394.863 995.580, 412.418 1005.664 C 429.972 1015.749, 444.759 1024, 445.277 1024 C 446.089 1024, 568.963 952.527, 821 805.450 C 886.500 767.227, 886.500 767.227, 887.104 639.864 C 887.437 569.814, 887.665 454.675, 887.611 384 C 887.513 255.500, 887.513 255.500, 887 369.500 C 886.487 483.500, 886.487 483.500, 886.244 368.935 C 886 254.370, 886 254.370, 753.750 178.499 C 681.013 136.770, 595.625 87.789, 564 69.652 C 532.375 51.515, 492.137 28.424, 474.582 18.338 C 457.028 8.252, 442.178 0.019, 441.582 0.043 C 440.987 0.066, 344.970 55.816, 228.211 123.931 M 461.215 79.916 C 457.758 80.917, 454.783 81.908, 454.604 82.118 C 454.425 82.328, 453.996 98.253, 453.651 117.508 C 453.025 152.515, 453.025 152.515, 461.262 165.008 C 469.500 177.500, 469.500 177.500, 520.558 208 C 571.616 238.500, 571.616 238.500, 591.601 244.321 C 606.421 248.637, 612.351 249.956, 614.543 249.422 C 616.927 248.842, 680.535 217.674, 681.879 216.427 C 682.088 216.233, 681.188 211.943, 679.879 206.892 C 677.732 198.606, 677.158 197.489, 674 195.457 C 666.541 190.658, 470.467 78.679, 469.026 78.396 C 468.187 78.231, 464.672 78.915, 461.215 79.916 M 359.957 113.050 C 328.906 131.228, 302.515 146.746, 301.310 147.534 C 300.106 148.322, 296.121 153.269, 292.456 158.527 C 285.790 168.087, 285.790 168.087, 293.041 194.793 C 297.029 209.482, 300.669 222.245, 301.131 223.156 C 301.592 224.067, 304.067 225.984, 306.631 227.417 C 311.292 230.023, 311.292 230.023, 318.896 227.929 C 325.104 226.221, 334.411 221.234, 369.584 200.774 C 412.669 175.713, 412.669 175.713, 421.695 157.606 C 430.721 139.500, 430.721 139.500, 427.911 115.500 C 423.862 80.926, 424.329 83.222, 420.987 81.493 C 419.399 80.672, 417.720 80, 417.257 80 C 416.793 80, 391.008 94.873, 359.957 113.050 M 158 230.418 C 77.500 276.851, 77.500 276.851, 67.114 292.982 C 56.727 309.112, 56.727 309.112, 57.934 405.306 C 58.707 466.959, 58.880 536.365, 58.418 598.597 C 57.696 695.695, 57.696 695.695, 63.478 703.597 C 66.658 707.944, 69.571 711.847, 69.952 712.272 C 70.333 712.696, 73.721 710.715, 77.481 707.868 C 81.285 704.988, 93.453 698.160, 104.909 692.478 C 125.500 682.263, 125.500 682.263, 133.229 666.382 C 140.958 650.500, 140.958 650.500, 140.010 586 C 139.489 550.525, 139.048 483.050, 139.031 436.055 C 138.991 325.685, 133.609 337.317, 202.728 298.381 C 252.222 270.500, 252.222 270.500, 263.690 258.298 C 275.157 246.096, 275.157 246.096, 267.079 216.482 C 262.635 200.194, 259 186.711, 259 186.519 C 259 186.327, 255.512 185.880, 251.250 185.526 C 246.988 185.171, 242.375 184.679, 241 184.433 C 239.080 184.089, 219.829 194.755, 158 230.418 M 308.375 282.206 C 190.314 350.412, 190.314 350.412, 183.407 362.456 C 176.500 374.500, 176.500 374.500, 176.216 510.636 C 175.932 646.772, 175.932 646.772, 183.059 659.192 C 190.186 671.612, 190.186 671.612, 307.979 739.806 C 425.773 808, 425.773 808, 440.234 808 C 454.695 808, 454.695 808, 572.597 739.872 C 690.500 671.744, 690.500 671.744, 697.250 659.874 C 704 648.004, 704 648.004, 704 511.100 C 704 374.196, 704 374.196, 697.219 362.377 C 690.439 350.559, 690.439 350.559, 572.495 282.279 C 454.552 214, 454.552 214, 440.494 214 C 426.436 214, 426.436 214, 308.375 282.206 M 681.853 244.260 C 652.205 259.472, 652.205 259.472, 648.151 266.212 C 644.097 272.951, 644.097 272.951, 691.299 301.274 C 738.500 329.597, 738.500 329.597, 744.164 350.379 C 747.279 361.809, 750.043 371.376, 750.305 371.638 C 750.567 371.900, 754.731 371.079, 759.558 369.813 C 766.829 367.906, 772.635 365.085, 793.399 353.373 C 818.463 339.235, 818.463 339.235, 823.808 324.367 C 829.152 309.500, 829.152 309.500, 825.795 297.137 C 822.437 284.774, 822.437 284.774, 783.969 261.929 C 746.708 239.802, 745.029 238.927, 730.499 234.043 C 722.248 231.269, 714.598 229.011, 713.499 229.024 C 712.400 229.037, 698.159 235.893, 681.853 244.260 M 0.487 399.500 C 0.486 478.150, 0.605 510.473, 0.750 471.328 C 0.895 432.184, 0.895 367.834, 0.750 328.328 C 0.605 288.823, 0.487 320.850, 0.487 399.500 M 795 382.441 C 772.500 392.810, 772.500 392.810, 761.931 402.518 C 751.361 412.227, 751.361 412.227, 747.010 423.702 C 742.658 435.177, 742.658 435.177, 744.284 455.645 C 745.909 476.113, 745.909 476.113, 751.158 480.806 C 754.044 483.388, 756.877 485.454, 757.453 485.397 C 761.066 485.043, 818.721 468.616, 819.680 467.667 C 820.329 467.025, 822.676 462.352, 824.896 457.282 C 828.932 448.065, 828.932 448.065, 829.621 414.742 C 830.309 381.419, 830.309 381.419, 824.797 376.710 C 821.765 374.119, 818.883 372.016, 818.392 372.036 C 817.901 372.056, 807.375 376.738, 795 382.441 M 301.500 382.425 C 299.850 383.168, 291.352 391.007, 282.615 399.845 C 266.730 415.913, 266.730 415.913, 267.256 420.581 C 267.777 425.197, 268.205 425.672, 306.286 463.874 C 327.463 485.118, 345.105 503.552, 345.490 504.837 C 347.333 510.988, 346.456 512.059, 308.899 549.504 C 289.043 569.302, 271.493 587.255, 269.899 589.400 C 266.698 593.707, 266.231 597.650, 268.432 601.800 C 269.220 603.285, 277.750 612.350, 287.387 621.944 C 304.808 639.287, 304.923 639.379, 307.562 637.967 C 309.022 637.186, 311.485 634.736, 313.035 632.523 C 314.586 630.310, 341.748 602.641, 373.395 571.036 C 413.773 530.711, 431.118 512.741, 431.546 510.789 C 431.882 509.259, 431.673 506.539, 431.081 504.744 C 429.787 500.826, 311.422 382, 308.812 382 C 307.905 382, 306.564 381.791, 305.832 381.536 C 305.099 381.282, 303.150 381.681, 301.500 382.425 M 784.988 504.322 C 773.156 507.170, 762.975 509.829, 762.363 510.231 C 761.752 510.634, 757.872 516.934, 753.742 524.231 C 746.234 537.500, 746.234 537.500, 748.435 575.551 C 749.646 596.479, 751.036 614.254, 751.526 615.051 C 752.155 616.077, 804.824 677.305, 817.898 692.211 C 818.241 692.602, 820.952 692.209, 823.923 691.338 C 829.324 689.754, 829.324 689.754, 828.663 635.127 C 828.300 605.082, 827.995 564.750, 827.986 545.500 C 827.970 510.500, 827.970 510.500, 819.735 504.757 C 814.809 501.322, 810.495 499.041, 809 499.079 C 807.625 499.114, 796.819 501.473, 784.988 504.322 M 443.763 597.565 C 438.911 600.198, 438 603.506, 438 618.500 C 438 628.889, 438.370 632.814, 439.566 635.128 C 442.680 641.150, 440.467 641, 526.067 641 C 612.704 641, 609.225 641.261, 612.423 634.522 C 613.602 632.037, 614 627.992, 614 618.500 C 614 609.008, 613.602 604.963, 612.423 602.478 C 609.221 595.732, 612.792 595.996, 525.349 596.040 C 457.556 596.074, 446.116 596.288, 443.763 597.565 M 745.630 662.750 C 745.352 663.712, 744.821 667.970, 744.449 672.212 C 743.772 679.924, 743.772 679.924, 724.484 694.398 C 706.616 707.806, 702.118 710.565, 663.413 731.857 C 625.324 752.811, 620.299 755.881, 606.565 766.595 C 591.500 778.348, 591.500 778.348, 543.893 847.800 C 496.285 917.251, 496.285 917.251, 497.541 921.376 C 498.261 923.740, 499.333 925.371, 500.052 925.199 C 500.743 925.033, 569.553 885.008, 652.964 836.255 C 804.620 747.613, 804.620 747.613, 810.410 737.281 C 816.200 726.950, 816.200 726.950, 809.448 719.405 C 760.653 664.885, 760.435 664.664, 753.746 662.773 C 746.085 660.608, 746.248 660.608, 745.630 662.750 M 123.500 714.948 C 92.500 730.834, 92.500 730.834, 87.820 738.667 C 85.247 742.975, 83.447 746.785, 83.820 747.133 C 84.194 747.481, 116.450 766.018, 155.500 788.326 C 226.500 828.885, 226.500 828.885, 233.349 827.227 C 240.198 825.569, 240.198 825.569, 239.495 797.035 C 238.792 768.500, 238.792 768.500, 235.022 754.709 C 232.948 747.124, 231.082 740.776, 230.876 740.602 C 228.967 738.995, 156.716 699.007, 155.763 699.030 C 155.068 699.047, 140.550 706.210, 123.500 714.948 M 270.476 769.024 C 266.628 772.966, 266.628 772.966, 268.331 804.712 C 269.819 832.464, 270.363 837.684, 272.651 846.199 C 275.269 855.939, 275.269 855.939, 352.739 901.062 C 430.210 946.185, 430.210 946.185, 440.046 943.487 C 449.882 940.790, 449.882 940.790, 491.480 878.658 C 514.359 844.486, 532.640 816.380, 532.104 816.201 C 531.568 816.023, 528.063 816.795, 524.315 817.917 C 519.664 819.310, 508.133 825.413, 488 837.139 C 458.500 854.319, 458.500 854.319, 438 851.505 C 417.500 848.690, 417.500 848.690, 346.500 807.214 C 307.450 784.403, 275.236 765.591, 274.913 765.411 C 274.589 765.230, 272.593 766.856, 270.476 769.024" stroke="none" fill="#0c0414" fill-rule="evenodd"/><path d="M 454.382 94.500 C 454.384 101.100, 454.546 103.670, 454.741 100.211 C 454.937 96.752, 454.936 91.352, 454.738 88.211 C 454.540 85.070, 454.380 87.900, 454.382 94.500 M 828.320 683 C 828.320 686.575, 828.502 688.038, 828.723 686.250 C 828.945 684.462, 828.945 681.538, 828.723 679.750 C 828.502 677.962, 828.320 679.425, 828.320 683 M 238.310 773.500 C 238.315 776.800, 238.502 778.029, 238.725 776.232 C 238.947 774.435, 238.943 771.735, 238.715 770.232 C 238.486 768.729, 238.304 770.200, 238.310 773.500 M 239.193 817.667 C 239.068 822.308, 238.560 825.011, 237.750 825.338 C 236.771 825.733, 236.778 825.859, 237.781 825.921 C 239.693 826.039, 240.142 823.977, 239.744 816.895 C 239.385 810.500, 239.385 810.500, 239.193 817.667" stroke="none" fill="#96a0a2" fill-rule="evenodd"/></svg>